<svg width="49" height="76" viewBox="0 0 49 76" fill="none" xmlns="http://www.w3.org/2000/svg">
<path d="M24.4033 0.822266C11.12 0.822266 0.306641 11.2356 0.306641 24.145C0.306641 31.4529 2.89194 34.8755 5.77206 39.335C7.69257 42.3091 9.67133 45.7269 10.7809 50.6361H37.8668C38.9706 45.6093 40.9692 42.1286 42.9065 39.1249C45.7907 34.6534 48.372 31.2913 48.372 24.1452C48.372 11.227 37.6871 0.822586 24.4035 0.822586L24.4033 0.822266ZM8.03316 21.3072L11.8422 24.5805L18.333 30.156L23.4498 24.6907L24.5621 23.4994L25.6953 24.6756L30.7402 29.9159L37.2978 24.5555L41.0197 21.5125L39.7638 26.092L33.8779 47.5277L30.9145 46.7522L35.5443 29.8958L31.6016 33.1189L30.4892 34.0247L29.4994 32.9933L24.593 27.9036L19.5789 33.2589L18.5637 34.3447L17.4358 33.3739L13.6213 30.1007L18.2052 46.7919L15.2416 47.5626L9.34566 26.0916L8.03316 21.3069V21.3072ZM11.7398 53.6288V60.2152L35.5596 53.6288H11.7398ZM36.9387 56.3616L11.7397 63.3332V68.0479L36.9387 61.0811V56.3612V56.3616ZM36.9387 64.1892L17.3437 69.6094H36.9387V64.1892ZM15.1902 72.6022V75.8907H33.7756V72.6027H15.1906L15.1902 72.6022Z" fill="white"/>
</svg>
