<svg width="72" height="72" viewBox="0 0 72 72" fill="none" xmlns="http://www.w3.org/2000/svg">
<path d="M64.8749 24.9433V16.4828C64.8749 15.3068 64.4077 14.179 63.5762 13.3475C62.7447 12.516 61.6169 12.0488 60.4409 12.0488H11.6677C10.4917 12.0488 9.36393 12.516 8.5324 13.3475C7.70088 14.179 7.23373 15.3068 7.23373 16.4828V51.9542C7.23373 53.1302 7.70088 54.258 8.5324 55.0895C9.36393 55.921 10.4917 56.3882 11.6677 56.3882H44.9222V63.0391C44.9187 63.4299 45.0185 63.8147 45.2117 64.1545C45.4048 64.4943 45.6844 64.777 46.022 64.974C46.3596 65.1709 46.7433 65.2751 47.1341 65.276C47.525 65.2768 47.9091 65.1744 48.2476 64.9789L54.8985 61.1713L61.5494 64.9789C61.8879 65.1744 62.2721 65.2768 62.6629 65.276C63.0538 65.2751 63.4375 65.1709 63.7751 64.974C64.1127 64.777 64.3922 64.4943 64.5854 64.1545C64.7785 63.8147 64.8784 63.4299 64.8749 63.0391V45.7107C66.2763 44.3686 67.3916 42.7568 68.1535 40.9722C68.9154 39.1877 69.3082 37.2674 69.3082 35.327C69.3082 33.3866 68.9154 31.4663 68.1535 29.6817C67.3916 27.8972 66.2763 26.2853 64.8749 24.9433ZM36.0543 40.8694H20.5355C19.9476 40.8694 19.3837 40.6358 18.9679 40.2201C18.5521 39.8043 18.3186 39.2404 18.3186 38.6524C18.3186 38.0645 18.5521 37.5006 18.9679 37.0848C19.3837 36.669 19.9476 36.4355 20.5355 36.4355H36.0543C36.6423 36.4355 37.2062 36.669 37.6219 37.0848C38.0377 37.5006 38.2713 38.0645 38.2713 38.6524C38.2713 39.2404 38.0377 39.8043 37.6219 40.2201C37.2062 40.6358 36.6423 40.8694 36.0543 40.8694ZM36.0543 32.0015H20.5355C19.9476 32.0015 19.3837 31.768 18.9679 31.3522C18.5521 30.9364 18.3186 30.3725 18.3186 29.7846C18.3186 29.1966 18.5521 28.6327 18.9679 28.2169C19.3837 27.8012 19.9476 27.5676 20.5355 27.5676H36.0543C36.6423 27.5676 37.2062 27.8012 37.6219 28.2169C38.0377 28.6327 38.2713 29.1966 38.2713 29.7846C38.2713 30.3725 38.0377 30.9364 37.6219 31.3522C37.2062 31.768 36.6423 32.0015 36.0543 32.0015ZM60.4409 59.2176L56.007 56.6791C55.672 56.4876 55.2927 56.3869 54.9068 56.3869C54.5209 56.3869 54.1417 56.4876 53.8067 56.6791L49.3727 59.2176V48.6288C51.1285 49.3623 53.0123 49.74 54.9152 49.74C56.818 49.74 58.7018 49.3623 60.4576 48.6288L60.4409 59.2176ZM54.8985 45.3033C52.9254 45.3033 50.9966 44.7182 49.356 43.622C47.7154 42.5258 46.4367 40.9677 45.6816 39.1448C44.9265 37.3218 44.7289 35.3159 45.1139 33.3807C45.4988 31.4455 46.449 29.6679 47.8442 28.2726C49.2394 26.8774 51.017 25.9273 52.9522 25.5423C54.8875 25.1574 56.8934 25.3549 58.7163 26.11C60.5392 26.8651 62.0973 28.1438 63.1936 29.7844C64.2898 31.425 64.8749 33.3538 64.8749 35.327C64.8749 36.6371 64.6168 37.9344 64.1155 39.1448C63.6141 40.3552 62.8793 41.4549 61.9529 42.3813C61.0265 43.3077 59.9267 44.0426 58.7163 44.5439C57.5059 45.0453 56.2086 45.3033 54.8985 45.3033Z" fill="white"/>
</svg>
