<svg width="40" height="40" viewBox="0 0 40 40" fill="none" xmlns="http://www.w3.org/2000/svg">
<path d="M37.5001 20C37.5001 15.3587 35.6563 10.9075 32.3744 7.62564C29.0926 4.34375 24.6414 2.50001 20.0001 2.50001C15.5934 2.49594 11.3475 4.15449 8.11032 7.14435C4.87316 10.1342 2.88314 14.2353 2.53775 18.6284C2.19237 23.0215 3.51705 27.3831 6.24719 30.8422C8.97734 34.3012 12.9119 36.6029 17.2651 37.2875V25.0575H12.8251V20H17.2676V16.145C17.2676 11.76 19.8801 9.33501 23.8776 9.33501C25.7926 9.33501 27.7951 9.67751 27.7951 9.67751V13.985H25.5876C23.4126 13.985 22.7376 15.335 22.7376 16.7175V20H27.5901L26.8151 25.0575H22.7351V37.2875C26.8513 36.6357 30.5999 34.5364 33.3066 31.3674C36.0132 28.1984 37.5002 24.1676 37.5001 20Z" fill="#3B5998"/>
<path d="M26.8125 25.057L27.5875 19.9995H22.735V16.717C22.735 15.3345 23.41 13.9845 25.585 13.9845H27.7924V9.67453C27.7924 9.67453 25.79 9.33203 23.875 9.33203C19.875 9.33203 17.265 11.757 17.265 16.142V19.9995H12.825V25.057H17.2675V37.287C19.0796 37.5722 20.9253 37.5722 22.7375 37.287V25.057H26.8125Z" fill="white"/>
</svg>
