<svg width="274" height="275" viewBox="0 0 274 275" fill="none" xmlns="http://www.w3.org/2000/svg">
<g filter="url(#filter0_d_113_1012)">
<mask id="path-1-inside-1_113_1012" fill="white">
<path d="M19.7001 169.628C-0.408367 149.52 -0.408373 116.918 19.7001 96.8092L100.61 15.8992C120.719 -4.20925 153.321 -4.20925 173.429 15.8992L254.339 96.8092C274.448 116.918 274.448 149.52 254.339 169.628L173.429 250.538C153.321 270.647 120.719 270.647 100.61 250.538L19.7001 169.628Z"/>
</mask>
<path d="M19.7001 169.628C-0.408367 149.52 -0.408373 116.918 19.7001 96.8092L100.61 15.8992C120.719 -4.20925 153.321 -4.20925 173.429 15.8992L254.339 96.8092C274.448 116.918 274.448 149.52 254.339 169.628L173.429 250.538C153.321 270.647 120.719 270.647 100.61 250.538L19.7001 169.628Z" fill="url(#paint0_linear_113_1012)"/>
<path d="M15.6545 173.674C-5.34758 152.672 -5.34758 118.62 15.6545 97.6183L98.9919 14.281C119.994 -6.72116 154.045 -6.72116 175.047 14.281L171.811 17.5174C152.596 -1.69734 121.443 -1.69734 102.228 17.5174L21.3183 98.4274C3.4441 116.302 4.53084 146.368 23.7456 165.583L15.6545 173.674ZM258.385 97.6183C279.387 118.62 279.387 152.672 258.385 173.674L177.475 254.584C155.132 276.927 118.907 276.927 96.5646 254.584L104.656 246.493C122.53 264.367 151.509 264.367 169.384 246.493L250.294 165.583C269.508 146.368 270.595 116.302 252.721 98.4274L258.385 97.6183ZM177.475 254.584C155.132 276.927 118.907 276.927 96.5646 254.584L15.6545 173.674C-5.34758 152.672 -5.34758 118.62 15.6545 97.6183L21.3183 98.4274C3.4441 116.302 4.53084 146.368 23.7456 165.583L104.656 246.493C122.53 264.367 151.509 264.367 169.384 246.493L177.475 254.584ZM98.9919 14.281C119.994 -6.72116 154.045 -6.72116 175.047 14.281L258.385 97.6183C279.387 118.62 279.387 152.672 258.385 173.674L250.294 165.583C269.508 146.368 270.595 116.302 252.721 98.4274L171.811 17.5174C152.596 -1.69734 121.443 -1.69734 102.228 17.5174L98.9919 14.281Z" fill="#22A354" mask="url(#path-1-inside-1_113_1012)"/>
</g>
<defs>
<filter id="filter0_d_113_1012" x="0.0416884" y="0.817383" width="273.956" height="273.957" filterUnits="userSpaceOnUse" color-interpolation-filters="sRGB">
<feFlood flood-opacity="0" result="BackgroundImageFix"/>
<feColorMatrix in="SourceAlpha" type="matrix" values="0 0 0 0 0 0 0 0 0 0 0 0 0 0 0 0 0 0 127 0" result="hardAlpha"/>
<feOffset dy="4.57696"/>
<feGaussianBlur stdDeviation="2.28848"/>
<feComposite in2="hardAlpha" operator="out"/>
<feColorMatrix type="matrix" values="0 0 0 0 0.235294 0 0 0 0 0.784314 0 0 0 0 0.733333 0 0 0 0.5 0"/>
<feBlend mode="normal" in2="BackgroundImageFix" result="effect1_dropShadow_113_1012"/>
<feBlend mode="normal" in="SourceGraphic" in2="effect1_dropShadow_113_1012" result="shape"/>
</filter>
<linearGradient id="paint0_linear_113_1012" x1="60.1551" y1="56.3542" x2="267.412" y2="263.611" gradientUnits="userSpaceOnUse">
<stop stop-color="#309F5B"/>
<stop offset="0.0699374" stop-color="#23A455"/>
<stop offset="0.9999" stop-color="#091C23"/>
<stop offset="1" stop-color="#020106"/>
</linearGradient>
</defs>
</svg>
