<svg width="72" height="72" viewBox="0 0 72 72" fill="none" xmlns="http://www.w3.org/2000/svg">
<path d="M69.1187 48.6362C69.12 48.6233 69.12 48.6103 69.1187 48.5974L64.5767 25.2721C64.5767 25.2555 64.5767 25.2389 64.5767 25.2223C63.8755 21.3926 61.8545 17.9298 58.8648 15.4358C55.8752 12.9418 52.106 11.5744 48.2127 11.5713H23.7956C19.8914 11.5698 16.1116 12.945 13.1211 15.4549C10.1307 17.9649 8.12095 21.449 7.44547 25.2943L2.92563 48.5974C2.92429 48.6103 2.92429 48.6233 2.92563 48.6362C2.55773 50.7252 2.86524 52.8771 3.80351 54.7795C4.74178 56.6818 6.26196 58.2356 8.14336 59.2152C10.0247 60.1948 12.1694 60.5493 14.266 60.2271C16.3625 59.905 18.3018 58.923 19.8023 57.4237L19.8993 57.3212L30.8982 44.8258H41.1517L52.1561 57.3212C52.1866 57.3572 52.2199 57.3905 52.2531 57.4237C54.1232 59.2897 56.6557 60.3398 59.2976 60.3446C60.7538 60.3436 62.1921 60.0239 63.5116 59.4078C64.8311 58.7918 65.9997 57.8944 66.9354 56.7786C67.8711 55.6627 68.5511 54.3556 68.9279 52.949C69.3046 51.5424 69.3688 50.0703 69.1159 48.6362H69.1187ZM29.3685 31.524H27.1515V33.741C27.1515 34.3289 26.918 34.8928 26.5022 35.3086C26.0864 35.7244 25.5225 35.9579 24.9346 35.9579C24.3466 35.9579 23.7827 35.7244 23.3669 35.3086C22.9512 34.8928 22.7176 34.3289 22.7176 33.741V31.524H20.5006C19.9127 31.524 19.3488 31.2904 18.933 30.8747C18.5172 30.4589 18.2837 29.895 18.2837 29.307C18.2837 28.719 18.5172 28.1552 18.933 27.7394C19.3488 27.3236 19.9127 27.0901 20.5006 27.0901H22.7176V24.8731C22.7176 24.2851 22.9512 23.7212 23.3669 23.3055C23.7827 22.8897 24.3466 22.6561 24.9346 22.6561C25.5225 22.6561 26.0864 22.8897 26.5022 23.3055C26.918 23.7212 27.1515 24.2851 27.1515 24.8731V27.0901H29.3685C29.9565 27.0901 30.5204 27.3236 30.9361 27.7394C31.3519 28.1552 31.5855 28.719 31.5855 29.307C31.5855 29.895 31.3519 30.4589 30.9361 30.8747C30.5204 31.2904 29.9565 31.524 29.3685 31.524ZM40.4533 29.307C40.4533 28.719 40.6869 28.1552 41.1027 27.7394C41.5184 27.3236 42.0823 27.0901 42.6703 27.0901H49.3212C49.9092 27.0901 50.4731 27.3236 50.8888 27.7394C51.3046 28.1552 51.5382 28.719 51.5382 29.307C51.5382 29.895 51.3046 30.4589 50.8888 30.8747C50.4731 31.2904 49.9092 31.524 49.3212 31.524H42.6703C42.0823 31.524 41.5184 31.2904 41.1027 30.8747C40.6869 30.4589 40.4533 29.895 40.4533 29.307ZM63.834 53.5468C63.4188 54.1447 62.889 54.6541 62.2753 55.0456C61.6616 55.4372 60.9763 55.7029 60.2592 55.8275C59.3916 55.9792 58.5004 55.9229 57.6588 55.6633C56.8171 55.4036 56.0491 54.948 55.4179 54.3338L47.0488 44.8258H48.2127C51.0431 44.8262 53.8268 44.104 56.3 42.7277C58.7733 41.3514 60.8543 39.3666 62.3459 36.9611L64.7679 49.4315C64.8912 50.1452 64.8722 50.8762 64.7119 51.5824C64.5517 52.2887 64.2533 52.9563 63.834 53.5468Z" fill="white"/>
</svg>
