<svg width="72" height="72" viewBox="0 0 72 72" fill="none" xmlns="http://www.w3.org/2000/svg">
<path d="M35.9139 7.01367C41.614 7.01367 47.1862 8.70396 51.9257 11.8708C56.6652 15.0376 60.3592 19.5388 62.5405 24.805C64.7219 30.0713 65.2926 35.8661 64.1806 41.4567C63.0685 47.0474 60.3237 52.1827 56.293 56.2133C52.2624 60.2439 47.1271 62.9888 41.5365 64.1008C35.9459 65.2129 30.151 64.6421 24.8848 62.4608C19.6185 60.2794 15.1174 56.5854 11.9506 51.8459C8.78372 47.1064 7.09343 41.5343 7.09343 35.8341C7.10223 28.1932 10.1415 20.8677 15.5445 15.4647C20.9474 10.0617 28.2729 7.02247 35.9139 7.01367ZM14.1988 24.7493H24.0781C25.3222 20.1849 27.4191 15.8972 30.2579 12.1127C26.8279 12.9366 23.6167 14.4925 20.8444 16.6737C18.072 18.8548 15.8041 21.6097 14.196 24.7493H14.1988ZM11.5273 35.8341C11.5254 38.0831 11.836 40.3215 12.4502 42.485H23.122C22.4422 38.0772 22.4422 33.5911 23.122 29.1833H12.4502C11.836 31.3468 11.5254 33.5851 11.5273 35.8341ZM35.9139 12.2789C32.5942 15.8331 30.1299 20.0983 28.7088 24.7493H43.119C41.6994 20.0976 39.2348 15.8321 35.9139 12.2789ZM43.119 46.9189H28.7088C30.1284 51.5706 32.5929 55.8361 35.9139 59.3893C39.2336 55.8352 41.6979 51.57 43.119 46.9189ZM44.1998 42.485C44.9609 38.0838 44.9609 33.5845 44.1998 29.1833H27.6058C26.8447 33.5845 26.8447 38.0838 27.6058 42.485H44.1998ZM30.2468 59.5556C27.408 55.771 25.3111 51.4834 24.067 46.9189H14.1849C15.7941 50.0598 18.0638 52.8154 20.8382 54.9966C23.6125 57.1779 26.8259 58.7331 30.2579 59.5556H30.2468Z" fill="white"/>
</svg>
