<svg width="72" height="72" viewBox="0 0 72 72" fill="none" xmlns="http://www.w3.org/2000/svg">
<path d="M22.6465 58.3924C21.1172 57.7898 19.6351 57.0738 18.2126 56.2502V67.4708C18.2126 68.0588 18.4462 68.6227 18.862 69.0384C19.2777 69.4542 19.8416 69.6878 20.4296 69.6878C21.0176 69.6878 21.5814 69.4542 21.9972 69.0384C22.413 68.6227 22.6465 68.0588 22.6465 67.4708V58.3924ZM19.3876 33.8866L34.9063 25.6091C35.4241 25.3446 36.025 25.2941 36.5796 25.4685C37.1343 25.6429 37.5982 26.0281 37.8715 26.5413C38.1448 27.0544 38.2056 27.6544 38.0407 28.2119C37.8759 28.7695 37.4987 29.24 36.9903 29.522L24.0321 36.4334L19.3211 33.9227L19.3876 33.8866ZM1.65194 25.6091L34.9063 7.87341C35.2271 7.70261 35.5849 7.61328 35.9483 7.61328C36.3117 7.61328 36.6695 7.70261 36.9903 7.87341L70.2446 25.6091C70.5994 25.7981 70.896 26.08 71.1028 26.4246C71.3097 26.7693 71.4189 27.1636 71.4189 27.5655C71.4189 27.9675 71.3097 28.3618 71.1028 28.7065C70.896 29.0511 70.5994 29.333 70.2446 29.522L62.5518 33.6262V47.0443C62.5541 48.1333 62.1533 49.1846 61.4267 49.9956C57.7964 54.0388 49.663 60.8199 35.9483 60.8199C31.4009 60.8575 26.8875 60.0338 22.6465 58.3924V37.1733L24.0321 36.4334L35.9483 42.7877L59.2735 30.3367L64.4916 27.5655L35.9483 12.3433L7.40495 27.5655L12.6093 30.3367H12.6259L19.3211 33.9227C18.984 34.1173 18.7041 34.3972 18.5095 34.7344C18.3149 35.0715 18.2125 35.4539 18.2126 35.8431V56.2502C15.3217 54.5814 12.7093 52.4711 10.4699 49.9956C9.74326 49.1846 9.34248 48.1333 9.34479 47.0443V33.6262L1.65194 29.522C1.29724 29.333 1.0006 29.0511 0.793755 28.7065C0.586911 28.3618 0.477644 27.9675 0.477644 27.5655C0.477644 27.1636 0.586911 26.7693 0.793755 26.4246C1.0006 26.08 1.29724 25.7981 1.65194 25.6091Z" fill="white"/>
</svg>
