<svg width="48" height="48" viewBox="0 0 48 48" fill="none" xmlns="http://www.w3.org/2000/svg">
<path d="M31.6745 11.1233C32.0318 9.85418 30.8001 9.10368 29.6753 9.90506L13.9731 21.0913C12.7532 21.9603 12.9451 23.6917 14.2613 23.6917H18.3961V23.6597H26.4547L19.8885 25.9766L16.9938 36.2602C16.6365 37.5294 17.868 38.2799 18.9929 37.4784L34.6952 26.2923C35.9151 25.4233 35.7231 23.6917 34.4069 23.6917H28.1366L31.6745 11.1233Z" fill="white"/>
<path fill-rule="evenodd" clip-rule="evenodd" d="M24.3341 47.2211C37.3291 47.2211 47.8635 36.6867 47.8635 23.6917C47.8635 10.6968 37.3291 0.162354 24.3341 0.162354C11.3391 0.162354 0.804688 10.6968 0.804688 23.6917C0.804688 36.6867 11.3391 47.2211 24.3341 47.2211ZM29.6753 9.90506C30.8001 9.10368 32.0318 9.85418 31.6745 11.1233L28.1366 23.6917H34.4069C35.7231 23.6917 35.9151 25.4233 34.6952 26.2923L18.9929 37.4784C17.868 38.2799 16.6365 37.5294 16.9938 36.2602L19.8885 25.9766L26.4547 23.6597H18.3961V23.6917H14.2613C12.9451 23.6917 12.7532 21.9603 13.9731 21.0913L29.6753 9.90506Z" fill="#2454FF"/>
</svg>
