<svg width="72" height="72" viewBox="0 0 72 72" fill="none" xmlns="http://www.w3.org/2000/svg">
<path d="M43.7415 10.939C43.7415 9.40439 43.2864 7.9042 42.4338 6.62818C41.5812 5.35216 40.3693 4.35762 38.9515 3.77034C37.5337 3.18305 35.9735 3.02939 34.4683 3.32878C32.9632 3.62818 31.5806 4.36719 30.4954 5.45235C29.4103 6.53752 28.6712 7.9201 28.3719 9.42527C28.0725 10.9304 28.2261 12.4906 28.8134 13.9084C29.4007 15.3263 30.3952 16.5381 31.6712 17.3907C32.9473 18.2433 34.4475 18.6984 35.9821 18.6984C38.04 18.6984 40.0136 17.8809 41.4688 16.4257C42.924 14.9706 43.7415 12.997 43.7415 10.939ZM8.38097 26.6157C8.58295 25.6224 9.12541 24.7308 9.91468 24.0949C10.704 23.4589 11.6905 23.1185 12.704 23.1323H59.2602C60.2711 23.1323 61.2516 23.4776 62.0393 24.1112C62.827 24.7447 63.3746 25.6284 63.5913 26.6158C63.808 27.6032 63.6807 28.635 63.2307 29.5401C62.7807 30.4453 62.0349 31.1695 61.1169 31.5928H61.1003L46.1663 38.1688L52.2407 61.2529C52.7043 62.3135 52.7348 63.5132 52.3258 64.5959C51.9167 65.6786 51.1005 66.5585 50.0515 67.0475C49.4652 67.3259 48.8244 67.4707 48.1754 67.4715C47.3396 67.4727 46.5204 67.2377 45.8124 66.7935C45.1044 66.3492 44.5363 65.7139 44.1738 64.9608L35.9821 50.8443L27.7849 64.9774C27.2751 66.0146 26.3804 66.8117 25.2915 67.1989C24.2027 67.5862 23.0056 67.533 21.9554 67.0507C20.9051 66.5684 20.0847 65.6951 19.6689 64.6168C19.253 63.5385 19.2746 62.3405 19.729 61.2779L25.8035 38.1938L10.839 31.6094C9.91037 31.1954 9.15603 30.4693 8.70701 29.5571C8.25798 28.6448 8.14262 27.6041 8.38097 26.6157Z" fill="white"/>
</svg>
