<svg width="72" height="72" viewBox="0 0 72 72" fill="none" xmlns="http://www.w3.org/2000/svg">
<path d="M18.387 41.3234C18.3945 41.4736 18.3714 41.6237 18.3191 41.7646C18.2667 41.9056 18.1863 42.0344 18.0826 42.1433C17.9789 42.2522 17.8541 42.3388 17.7159 42.3979C17.5777 42.4571 17.4289 42.4875 17.2785 42.4873H5.05193C4.55155 42.4881 4.06563 42.3195 3.67318 42.0091C3.28074 41.6987 3.00485 41.2646 2.89039 40.7775C2.81912 40.4441 2.8224 40.099 2.90001 39.767C2.97762 39.435 3.12763 39.1243 3.33932 38.857C5.29527 36.2631 7.89045 34.2208 10.8715 32.9294C9.5627 31.7361 8.55891 30.2466 7.94417 28.5856C7.32944 26.9246 7.12165 25.1405 7.33821 23.3827C7.55478 21.6249 8.18939 19.9446 9.1889 18.4825C10.1884 17.0204 11.5237 15.8191 13.083 14.9791C14.6422 14.1392 16.3801 13.6851 18.1509 13.6549C19.9217 13.6247 21.674 14.0193 23.261 14.8056C24.848 15.5919 26.2235 16.747 27.2723 18.1742C28.321 19.6014 29.0126 21.2591 29.2889 23.0085C29.3246 23.2437 29.2825 23.4842 29.1689 23.6933C29.0554 23.9024 28.8766 24.0687 28.6599 24.1668C25.5849 25.5884 22.9807 27.8599 21.1546 30.7132C19.3285 33.5665 18.3566 36.8827 18.3537 40.2703C18.3537 40.625 18.3537 40.9742 18.387 41.3234ZM68.823 38.8542C66.8716 36.2633 64.2823 34.2221 61.3075 32.9294C62.6162 31.7361 63.62 30.2466 64.2348 28.5856C64.8495 26.9246 65.0573 25.1405 64.8407 23.3827C64.6242 21.6249 63.9895 19.9446 62.99 18.4825C61.9905 17.0204 60.6552 15.8191 59.096 14.9791C57.5367 14.1392 55.7989 13.6851 54.028 13.6549C52.2572 13.6247 50.5049 14.0193 48.9179 14.8056C47.3309 15.5919 45.9554 16.747 44.9067 18.1742C43.8579 19.6014 43.1664 21.2591 42.89 23.0085C42.8543 23.2437 42.8965 23.4842 43.01 23.6933C43.1236 23.9024 43.3023 24.0687 43.5191 24.1668C46.594 25.5884 49.1982 27.8599 51.0243 30.7132C52.8504 33.5665 53.8223 36.8827 53.8252 40.2703C53.8252 40.625 53.8252 40.9742 53.7919 41.3234C53.7844 41.4736 53.8075 41.6237 53.8599 41.7646C53.9122 41.9056 53.9927 42.0344 54.0963 42.1433C54.2 42.2522 54.3248 42.3388 54.463 42.3979C54.6013 42.4571 54.7501 42.4875 54.9004 42.4873H67.127C67.6274 42.4881 68.1133 42.3195 68.5058 42.0091C68.8982 41.6987 69.1741 41.2646 69.2885 40.7775C69.3603 40.4434 69.3569 40.0977 69.2788 39.7651C69.2007 39.4325 69.0498 39.1214 68.8368 38.8542H68.823ZM44.1592 50.8203C46.3666 49.1298 47.9888 46.7901 48.7978 44.13C49.6067 41.4699 49.5618 38.6231 48.6693 35.9899C47.7768 33.3567 46.0816 31.0693 43.822 29.4492C41.5623 27.8292 38.8518 26.9579 36.0715 26.9579C33.2911 26.9579 30.5806 27.8292 28.3209 29.4492C26.0613 31.0693 24.3661 33.3567 23.4736 35.9899C22.5811 38.6231 22.5362 41.4699 23.3451 44.13C24.1541 46.7901 25.7763 49.1298 27.9837 50.8203C24.0667 52.5175 20.7959 55.4241 18.6503 59.1146C18.4557 59.4516 18.3532 59.834 18.3532 60.2232C18.3533 60.6124 18.4557 60.9947 18.6504 61.3317C18.845 61.6688 19.125 61.9486 19.462 62.1432C19.7991 62.3377 20.1815 62.4401 20.5707 62.44H51.6082C51.9974 62.4401 52.3798 62.3377 52.7169 62.1432C53.054 61.9486 53.3339 61.6688 53.5286 61.3317C53.7232 60.9947 53.8257 60.6124 53.8257 60.2232C53.8257 59.834 53.7233 59.4516 53.5287 59.1146C51.3784 55.4217 48.1016 52.5149 44.1786 50.8203H44.1592Z" fill="white"/>
</svg>
