<svg width="72" height="72" viewBox="0 0 72 72" fill="none" xmlns="http://www.w3.org/2000/svg">
<path d="M33.9079 13.6667C33.9079 11.9128 34.4279 10.1983 35.4024 8.73998C36.3768 7.28166 37.7617 6.14505 39.3821 5.47386C41.0025 4.80267 42.7856 4.62706 44.5058 4.96923C46.226 5.31139 47.8061 6.15598 49.0462 7.39617C50.2864 8.63636 51.131 10.2165 51.4732 11.9367C51.8154 13.6569 51.6397 15.4399 50.9686 17.0603C50.2974 18.6807 49.1608 20.0656 47.7024 21.0401C46.2441 22.0145 44.5296 22.5346 42.7757 22.5346C40.4238 22.5346 38.1682 21.6003 36.5052 19.9372C34.8421 18.2742 33.9079 16.0186 33.9079 13.6667ZM58.2945 38.0533C50.3577 38.0533 46.7081 34.3676 42.845 30.4685C41.8668 29.4792 40.8553 28.4566 39.7967 27.5366C29.5432 18.6299 13.1321 33.8356 12.4393 34.4868C12.0267 34.8929 11.7894 35.4444 11.778 36.0232C11.7667 36.602 11.9822 37.1623 12.3785 37.5843C12.7748 38.0063 13.3205 38.2566 13.8989 38.2816C14.4773 38.3066 15.0425 38.1043 15.4738 37.718C18.0527 35.3882 20.8905 33.3621 23.9315 31.6796C27.7502 29.6344 30.9676 28.8446 33.5476 29.3019L18.572 63.7729C18.3382 64.3121 18.3279 64.922 18.5436 65.4686C18.7592 66.0153 19.1831 66.454 19.722 66.6882C20.0004 66.8114 20.3016 66.8746 20.6061 66.8739C21.0381 66.8741 21.4608 66.748 21.8222 66.5112C22.1835 66.2744 22.4678 65.9372 22.6401 65.541L31.9486 44.1278L40.5588 50.2799V64.6569C40.5588 65.2449 40.7923 65.8088 41.2081 66.2246C41.6238 66.6403 42.1877 66.8739 42.7757 66.8739C43.3637 66.8739 43.9276 66.6403 44.3434 66.2246C44.7591 65.8088 44.9927 65.2449 44.9927 64.6569V49.1382C44.9927 48.7853 44.9085 48.4375 44.747 48.1237C44.5855 47.8099 44.3515 47.5392 44.0643 47.3341L33.7554 39.971L37.4772 31.4024C38.2088 32.0786 38.9348 32.8074 39.6941 33.5751C43.6209 37.5517 48.5093 42.4873 58.2945 42.4873C58.8825 42.4873 59.4464 42.2537 59.8621 41.8379C60.2779 41.4222 60.5115 40.8583 60.5115 40.2703C60.5115 39.6823 60.2779 39.1184 59.8621 38.7027C59.4464 38.2869 58.8825 38.0533 58.2945 38.0533Z" fill="white"/>
</svg>
